<svg width="153" height="129" viewBox="0 0 153 129" fill="none" xmlns="http://www.w3.org/2000/svg">
<path d="M153 63.0972V65.7129H148.192C144.076 65.7129 142.018 68.149 142.018 73.0212V114.916C142.018 124.31 137.215 129.006 127.608 129.006H124.173V126.378H128.566C135.704 126.378 139.273 122.566 139.273 114.941V73.0457C139.273 70.5953 139.614 68.684 140.304 67.3914C141.047 66.0575 142.239 65.0326 143.666 64.5C142.236 63.9692 141.043 62.9411 140.304 61.6024C139.614 60.3221 139.273 58.4353 139.273 55.9543V14.0897C139.273 6.46491 135.704 2.65049 128.566 2.64641H124.173V0H127.608C137.211 0 142.014 4.69655 142.018 14.0897V55.9543C142.018 60.7325 144.076 63.1217 148.192 63.1217L153 63.0972ZM4.80146 63.0972C8.92164 63.0972 10.9817 60.7162 10.9817 55.9543V14.0897C10.9817 4.69655 15.7852 0 25.3922 0H28.8271V2.61578H24.4344C17.2962 2.61578 13.7272 6.4404 13.7272 14.0897V55.9543C13.7272 58.4047 13.3855 60.3221 12.6961 61.6024C11.957 62.9411 10.7642 63.9692 9.33448 64.5C10.7603 65.0311 11.9518 66.0537 12.6961 67.3853C13.3855 68.6779 13.7272 70.5586 13.7272 73.0396V114.935C13.7272 122.564 17.2962 126.376 24.4344 126.372H28.8271V128.994H25.3922C15.7852 128.994 10.9817 124.297 10.9817 114.904V73.0457C10.9817 68.1776 8.92164 65.7415 4.80146 65.7374H0V63.0972H4.80146Z" fill="#059669"/>
<path d="M67.6 50.2C70.0267 50.2 72.1067 50.7333 73.84 51.8C75.5733 52.84 76.8933 54.44 77.8 56.6C78.7333 58.76 79.2 61.52 79.2 64.88V84H72.32V66.28C72.32 62.7333 71.8267 60.0667 70.84 58.28C69.8533 56.4933 68.0533 55.6 65.44 55.6C64.0533 55.6 62.72 55.9867 61.44 56.76C60.1867 57.5067 59.1467 58.6667 58.32 60.24C57.52 61.8133 57.12 63.8267 57.12 66.28V84H50.64V66.28C50.64 62.7333 50.0267 60.0667 48.8 58.28C47.5733 56.4933 45.8533 55.6 43.64 55.6C42.2267 55.6 40.8933 55.9733 39.64 56.72C38.4133 57.44 37.4133 58.5867 36.64 60.16C35.8667 61.7333 35.48 63.7733 35.48 66.28V84H28.56V51.16H35.48V56.2C35.7733 55.3733 36.4 54.4933 37.36 53.56C38.3467 52.6267 39.6 51.84 41.12 51.2C42.6667 50.5333 44.3867 50.2 46.28 50.2C48.2533 50.2 49.9067 50.6 51.24 51.4C52.5733 52.2 53.6267 53.1867 54.4 54.36C55.1733 55.5067 55.7067 56.6133 56 57.68C56.3733 56.5333 57.0933 55.3867 58.16 54.24C59.2267 53.0667 60.5733 52.1067 62.2 51.36C63.8267 50.5867 65.6267 50.2 67.6 50.2ZM115.225 84V77.6C115.012 78.2667 114.385 79.1867 113.345 80.36C112.332 81.5333 110.932 82.6 109.145 83.56C107.385 84.4933 105.305 84.96 102.905 84.96C99.865 84.96 97.105 84.24 94.625 82.8C92.1717 81.36 90.2117 79.3467 88.745 76.76C87.305 74.1467 86.585 71.0933 86.585 67.6C86.585 64.1067 87.305 61.0667 88.745 58.48C90.2117 55.8667 92.1717 53.84 94.625 52.4C97.105 50.9333 99.865 50.2 102.905 50.2C105.278 50.2 107.332 50.6267 109.065 51.48C110.825 52.3333 112.225 53.32 113.265 54.44C114.332 55.56 114.958 56.52 115.145 57.32V51.16H122.025V84H115.225ZM93.465 67.6C93.465 69.9733 93.985 72.0267 95.025 73.76C96.065 75.4933 97.4117 76.84 99.065 77.8C100.745 78.7333 102.532 79.2 104.425 79.2C106.452 79.2 108.265 78.72 109.865 77.76C111.465 76.8 112.732 75.4533 113.665 73.72C114.598 71.96 115.065 69.92 115.065 67.6C115.065 65.28 114.598 63.2533 113.665 61.52C112.732 59.76 111.465 58.4 109.865 57.44C108.265 56.4533 106.452 55.96 104.425 55.96C102.532 55.96 100.745 56.44 99.065 57.4C97.4117 58.36 96.065 59.7067 95.025 61.44C93.985 63.1733 93.465 65.2267 93.465 67.6Z" fill="white"/>
</svg>
